<?xml version="1.0" encoding="UTF-8"?>
<svg id="Layer_1" data-name="Layer 1" xmlns="http://www.w3.org/2000/svg" viewBox="0 0 2175.49 587.71">
  <defs>
    <style>
      .cls-1 {
        fill: #231f20;
      }
    </style>
  </defs>
  <path class="cls-1" d="M137.8,320.81h88.65c8.71,0,14.25-4.75,22.95-4.75v-4.75c1.58-9.5,3.17-33.24,3.17-42.74,0-8.71-1.58-17.41-1.58-26.12.79-7.91-.79-16.62-.79-24.54v-36.41c0-3.17.79-15.83,0-27.7,0-16.62,2.37-24.54,0-43.53.79-3.96-.79-7.92-.79-12.66,0-1.58-.79-3.96-.79-5.54,0-3.96,0-7.91.79-13.46h84.69c4.75,4.75,4.75,8.71,4.75,13.46,0,14.25-.79,27.7-.79,39.57,0,19-3.96,41.16-3.96,64.11,0,7.91,1.58,22.95,0,33.24-3.17,26.12-3.17,50.65-3.17,74.4,0,21.37,3.17,44.32,3.17,61.74-3.17,15.04,0,83.1,0,98.93v80.73c-22.95,0-40.36,3.96-59.36,3.96-7.91,0-12.66,0-21.37,4.75l-3.96-4.75c1.58-15.04-.79-55.4,0-70.44.79-23.74,1.58-49.86,1.58-73.61,0,1.58-1.58-29.28-1.58-33.24s-3.17-1.58-7.12-2.37c-11.08-1.58-17.41.79-27.7.79-11.87-.79-41.16,3.17-53.03,3.17l-34.82.79c-4.75,0-8.71-.79-12.66,0-3.96,0-1.58,5.54-1.58,5.54,0,12.66,1.58,26.12,1.58,40.37v21.37c0,26.91,0,53.82-3.96,80.73v22.95c-4.75,3.96-8.71,3.96-17.41,3.96s-22.95,0-31.66,4.75h-22.95c-4.75,0-7.92-1.58-17.41-4.75v-53.82c0-26.12-.79-30.08-.79-34.03-1.58-5.54,0-14.25,0-17.41,2.37-22.16-.79-48.28-1.58-64.11-.79-9.5-.79-18.2-.79-27.7,0-18.2,2.37-35.62.79-53.03-.79-10.29-.79-20.58.79-28.49.79-3.96-2.37-16.62-2.37-29.28,0-33.24,4.75-52.24,2.37-85.48-.79-7.91,1.58-45.91,1.58-53.82,0-9.5-3.17-13.46-3.17-17.41v-5.54h96.56c5.54,4.75,5.54,8.71,5.54,8.71.79,20.58-.79,41.16-1.58,61.74,0,28.49,2.37,55.4,3.17,83.1,0,15.04-.79,30.87-.79,45.91s-1.58,36.41-.79,42.74c0,.79,8.71,0,18.2,0Z"/>
  <path class="cls-1" d="M686.29,541.63l-5.54.79c-5.54.79-4.75,0-12.66,0-2.37.79-22.95,5.54-32.45.79-5.54,0-5.54-1.58-11.08-1.58-4.75-3.96-4.75-14.25-4.75-19.79v-19.79l-6.33,8.71-14.25,13.46c-10.29,7.12-15.83,11.87-25.33,16.62-15.83,9.5-35.62,11.87-51.45,11.87s-34.82-8.71-48.28-13.46c-3.96-.79-7.92-3.96-11.08-6.33-6.33-5.54-15.04-11.08-20.58-15.83-3.17-2.38-5.54-5.54-9.5-7.12-3.17-1.58-5.54-4.75-7.12-7.91-5.54-11.08-15.04-21.37-19.79-36.41-3.17-11.08-10.29-22.16-10.29-31.66,0-4.75-1.58-22.16-1.58-26.91,0-9.5.79-12.66.79-22.95,0-4.75,1.58-10.29,3.96-19.79,1.58-11.08,2.37-26.91,4.75-34.82,7.12-13.46,8.71-13.46,11.08-21.37,2.37-6.33,5.54-19,12.66-23.74,5.54-3.96,28.49-25.33,31.66-26.12l14.25-6.33c8.71-3.17,19.79-4.75,29.28-4.75l24.54-.79c5.54,0,13.46,0,15.83.79,4.75,0,10.29,4.75,15.83,4.75,4.75,0,14.25,4.75,19.79,9.5,10.29,3.96,15.83,11.08,20.58,15.83,4.75,5.54,10.29,9.5,15.04,15.04.79,3.17,5.54,5.54,5.54,5.54,1.58-2.37,1.58-9.5,4.75-15.04.79-15.04,1.58-28.49,2.37-32.45-.79-3.96.79-15.04,6.33-13.46,4.75-1.58,33.24,4.75,47.49,4.75.79,0,.79,7.12,0,10.29l4.75,75.98v85.48c0,3.17-.79,6.33-.79,9.5.79,9.5.79,19.79.79,30.08.79,7.12,0,15.04,0,23.74,0,13.46,1.58,46.7.79,60.94v3.96ZM584.19,419.74c0-6.33,6.33-29.28-5.54-60.94-3.17-7.92-8.71-19.79-22.16-24.54-7.12-1.58-13.46-5.54-20.58-4.75-7.12,2.37-20.58,10.29-27.7,20.58-4.75,5.54-5.54,11.08-6.33,19.79-3.17,13.46-4.75,19-4.75,30.08,0,20.58,17.41,38.78,20.58,43.53,3.17,3.17,4.75,1.58,10.29,7.12,10.29,4.75,19.79,0,30.87-5.54h4.75c9.5-4.75,15.04-9.5,20.58-19.79.79-.79,0-5.54,0-5.54Z"/>
  <path class="cls-1" d="M794.71,552.71c-7.91,0-17.41,1.58-26.91.79v-56.19c0-15.83-4.75-21.37-3.96-36.41,1.58-19,.79-39.57,0-59.36l-1.58-25.33c0-18.2-1.58-37.2-1.58-56.19,0-9.5.79-19.79-.79-29.28,0-10.29,2.37-21.37-.79-30.87-.79-8.71.79-45.91,2.37-67.28l.79-82.31c3.96-30.87,3.96-66.48,3.96-102.1,11.87-3.17,29.28-3.17,45.11,0,3.96.79,7.91,0,11.87.79,0,0,5.54,0,5.54,5.54,1.58,20.58-.79,41.95.79,62.53.79,18.2,0,32.45,0,51.45-.79,17.41.79,25.33,0,42.74l-.79,19v30.87c0,8.71.79,34.03.79,54.61,0,22.16,0,40.37-.79,48.28,5.54-5.54,5.54-9.5,9.5-9.5,10.29-10.29,21.37-26.12,35.62-30.87,11.08-4.75,15.83-4.75,25.33-4.75,21.37-5.54,46.7-5.54,66.48,0,35.62,14.25,56.99,35.62,66.48,65.69,5.54,10.29,10.29,20.58,10.29,30.87,5.54,19.79,5.54,35.62,5.54,56.19,0,11.87-.79,24.54-3.96,34.83-1.58,7.12-7.12,19.79-9.5,26.12-8.71,22.16-17.41,34.03-37.99,50.65-4.75,4.75-9.5,10.29-15.04,10.29-10.29,10.29-25.33,15.83-35.62,15.83h-20.58c-16.62-3.17-30.87-6.33-45.91-16.62-4.75-3.17-34.03-19.79-41.16-34.83,0-2.37-3.17-3.96-5.54-5.54-.79,10.29-1.58,26.12-1.58,41.16l-36.41-.79ZM935.59,461.69c6.33-6.33,11.08-14.25,15.04-25.33,1.58-10.29.79-20.58,0-30.08,3.17-19-4.75-25.33-15.04-41.16-10.29-5.54-15.04-5.54-25.33,0-1.58,1.58-11.87,11.87-18.2,23.74-3.17,7.12-2.37,16.62-2.37,22.16,0,2.37-3.17,11.87.79,22.16,3.17,9.5,12.66,21.37,14.25,23.74,5.54,4.75,20.58,10.29,30.87,4.75Z"/>
  <path class="cls-1" d="M1178.57,518.68c0,3.17-.79,5.54-2.37,7.12-10.29,1.58-26.12,3.96-37.2,3.17-9.5-.79-20.58,1.58-24.54,1.58,0-6.33-1.58-10.29-.79-19.79.79-8.71,0-19,0-26.91v-38.78c-.79-24.54-.79-53.82-1.58-62.53-.79-9.5,1.58-19,1.58-28.49-.79-15.04,0-30.08,0-45.11,0-12.66-1.58-37.2,0-49.86,8.71-1.58,22.16-1.58,36.41-2.37,11.87-.79,25.33-.79,30.08-.79,1.58,0,.79,8.71.79,10.29-.79,26.12.79,43.53-.79,64.9.79,21.37,0,34.03-1.58,54.61-.79,6.33,2.38,62.53,1.58,80.73,1.58,20.58,0,37.99-1.58,52.24ZM1112.88,176.76c0-4.75-.79-9.5-.79-13.46,0-1.58.79-3.17.79-4.75h56.99q5.54,0,5.54,4.75v51.45c-11.87,1.58-60.94,1.58-61.73-1.58-.79-2.37-.79-4.75-.79-7.91-.79-5.54,0-17.41,0-28.49Z"/>
  <path class="cls-1" d="M1411.26,539.26c0,6.33,0,21.37-.79,27.7.79,3.96-3.96,8.71-5.54,10.29h-20.58c-5.54,0-12.66-.79-18.2-.79-7.92,3.17-34.03.79-37.2.79q-4.75-5.54-4.75-10.29v-75.98l-1.58-46.7,1.58-53.03-.79-45.91-3.17-37.99c-12.66,0-34.03,2.37-43.53,0-18.2-3.17-25.33,0-39.57,0v-50.65h4.75c4.75,0,9.5-.79,11.08,0,5.54,3.96,19,.79,18.2-.79,11.87-.79,10.29-.79,19.79-.79,8.71,0,29.29.79,34.83,0,.79,0,0-29.28,0-40.37,2.37-19.79,2.37-34.82,3.17-55.4.79-14.25.79-27.7.79-42.74s2.38-39.57,1.58-56.19c0-5.54-2.37-5.54-2.37-10.29s0-7.91,5.54-7.91c9.5,0,20.58,1.58,30.08,1.58,15.83,0,30.08,0,37.99.79,7.12.79,12.66,1.58,18.2,3.17.79,0,0,21.37-.79,33.24-.79,26.12-.79,42.74,0,68.86,0,11.87-.79,24.54,0,36.41,0,6.33-3.17,48.28-3.96,54.61,0,5.54,3.17,10.29,4.75,10.29,5.54,0,15.04,2.37,20.58,2.37,4.75,0,10.29,2.37,20.58,2.37,9.5,0,19.79.79,30.87.79,4.75,0,9.5.79,9.5.79,4.75,15.83,4.75,39.57,0,49.86h-4.75c-20.58,2.37-41.16,3.96-61.74,3.96-4.75,0-13.46.79-19,.79,0,4.75-.79,10.29-.79,10.29v7.12c0,9.5.79,16.62,0,25.33l1.58,41.95-3.17,35.62c.79,11.08-2.37,59.36-3.17,70.44,0,11.87-.79,24.54,0,36.41Z"/>
  <path class="cls-1" d="M1837.85,541.63l-5.54.79c-5.54.79-4.75,0-12.66,0-2.37.79-22.95,5.54-32.45.79-5.54,0-5.54-1.58-11.08-1.58-4.75-3.96-4.75-14.25-4.75-19.79v-19.79l-6.33,8.71-14.25,13.46c-10.29,7.12-15.83,11.87-25.33,16.62-15.83,9.5-35.62,11.87-51.45,11.87s-34.83-8.71-48.28-13.46c-3.96-.79-7.91-3.96-11.08-6.33-6.33-5.54-15.04-11.08-20.58-15.83-3.17-2.38-5.54-5.54-9.5-7.12-3.17-1.58-5.54-4.75-7.12-7.91-5.54-11.08-15.04-21.37-19.79-36.41-3.17-11.08-10.29-22.16-10.29-31.66,0-4.75-1.58-22.16-1.58-26.91,0-9.5.79-12.66.79-22.95,0-4.75,1.58-10.29,3.96-19.79,1.58-11.08,2.37-26.91,4.75-34.82,7.12-13.46,8.71-13.46,11.08-21.37,2.38-6.33,5.54-19,12.66-23.74,5.54-3.96,28.49-25.33,31.66-26.12l14.25-6.33c8.71-3.17,19.79-4.75,29.28-4.75l24.54-.79c5.54,0,13.46,0,15.83.79,4.75,0,10.29,4.75,15.83,4.75,4.75,0,14.25,4.75,19.79,9.5,10.29,3.96,15.83,11.08,20.58,15.83,4.75,5.54,10.29,9.5,15.04,15.04.79,3.17,5.54,5.54,5.54,5.54,1.58-2.37,1.58-9.5,4.75-15.04.79-15.04,1.58-28.49,2.38-32.45-.79-3.96.79-15.04,6.33-13.46,4.75-1.58,33.24,4.75,47.49,4.75.79,0,.79,7.12,0,10.29l4.75,75.98v85.48c0,3.17-.79,6.33-.79,9.5.79,9.5.79,19.79.79,30.08.79,7.12,0,15.04,0,23.74,0,13.46,1.58,46.7.79,60.94v3.96ZM1735.75,419.74c0-6.33,6.33-29.28-5.54-60.94-3.17-7.92-8.71-19.79-22.16-24.54-7.12-1.58-13.46-5.54-20.58-4.75-7.12,2.37-20.58,10.29-27.7,20.58-4.75,5.54-5.54,11.08-6.33,19.79-3.17,13.46-4.75,19-4.75,30.08,0,20.58,17.41,38.78,20.58,43.53,3.17,3.17,4.75,1.58,10.29,7.12,10.29,4.75,19.79,0,30.87-5.54h4.75c9.5-4.75,15.04-9.5,20.58-19.79.79-.79,0-5.54,0-5.54Z"/>
  <path class="cls-1" d="M2064.21,539.26c0,6.33,0,21.37-.79,27.7.79,3.96-3.96,8.71-5.54,10.29h-20.58c-5.54,0-12.66-.79-18.2-.79-7.92,3.17-34.03.79-37.2.79q-4.75-5.54-4.75-10.29v-75.98l-1.58-46.7,1.58-53.03-.79-45.91-3.17-37.99c-12.66,0-34.03,2.37-43.53,0-18.2-3.17-25.33,0-39.57,0v-50.65h4.75c4.75,0,9.5-.79,11.08,0,5.54,3.96,19,.79,18.2-.79,11.87-.79,10.29-.79,19.79-.79,8.71,0,29.29.79,34.83,0,.79,0,0-29.28,0-40.37,2.37-19.79,2.37-34.82,3.17-55.4.79-14.25.79-27.7.79-42.74s2.38-39.57,1.58-56.19c0-5.54-2.37-5.54-2.37-10.29s0-7.91,5.54-7.91c9.5,0,20.58,1.58,30.08,1.58,15.83,0,30.08,0,37.99.79,7.12.79,12.66,1.58,18.2,3.17.79,0,0,21.37-.79,33.24-.79,26.12-.79,42.74,0,68.86,0,11.87-.79,24.54,0,36.41,0,6.33-3.17,48.28-3.96,54.61,0,5.54,3.17,10.29,4.75,10.29,5.54,0,15.04,2.37,20.58,2.37,4.75,0,10.29,2.37,20.58,2.37,9.5,0,19.79.79,30.87.79,4.75,0,9.5.79,9.5.79,4.75,15.83,4.75,39.57,0,49.86h-4.75c-20.58,2.37-41.16,3.96-61.74,3.96-4.75,0-13.46.79-19,.79,0,4.75-.79,10.29-.79,10.29v7.12c0,9.5.79,16.62,0,25.33l1.58,41.95-3.17,35.62c.79,11.08-2.37,59.36-3.17,70.44,0,11.87-.79,24.54,0,36.41Z"/>
</svg>